<?xml version="1.0" encoding="UTF-8" standalone="no"?>
<!DOCTYPE svg PUBLIC "-//W3C//DTD SVG 1.1//EN" "http://www.w3.org/Graphics/SVG/1.1/DTD/svg11.dtd">
<svg width="100%" height="100%" viewBox="0 0 72 72" version="1.1" xmlns="http://www.w3.org/2000/svg" xmlns:xlink="http://www.w3.org/1999/xlink" xml:space="preserve" xmlns:serif="http://www.serif.com/" style="fill-rule:evenodd;clip-rule:evenodd;stroke-linejoin:round;stroke-miterlimit:2;">
    <g transform="matrix(0.144,0,0,0.144,0,0)">
        <rect x="0" y="0" width="500" height="500"/>
    </g>
    <g transform="matrix(0.271491,0,0,0.271491,-62.5287,-25.7792)">
        <path d="M347.219,168.315L374.472,168.315C374.472,168.315 396.04,168.315 396.04,168.315L384.49,211.421L410.361,211.421C410.361,211.421 431.929,211.421 431.929,211.421L414.797,275.361L356.801,275.361L362.384,254.527L398.811,254.527L404.779,232.254C404.779,232.254 397.043,232.254 386.551,232.254C353.246,232.254 324.093,254.624 315.473,286.795C315.473,286.795 315.473,286.796 315.473,286.796L293.904,286.796L325.651,168.315L347.219,168.315L347.219,168.315ZM341.637,189.148L335.669,211.421L362.922,211.421L368.89,189.148L341.637,189.148Z" style="fill:url(#_Linear1);"/>
    </g>
    <defs>
        <linearGradient id="_Linear1" x1="0" y1="0" x2="1" y2="0" gradientUnits="userSpaceOnUse" gradientTransform="matrix(138.025,0,0,118.481,293.904,227.555)"><stop offset="0" style="stop-color:rgb(245,92,122);stop-opacity:1"/><stop offset="1" style="stop-color:rgb(246,188,102);stop-opacity:1"/></linearGradient>
    </defs>
</svg>
